<?xml version="1.0" encoding="UTF-8"?>
<svg width="97px" height="64px" viewBox="0 0 97 64" version="1.1" xmlns="http://www.w3.org/2000/svg" xmlns:xlink="http://www.w3.org/1999/xlink">
    <title>1ED3C054-C55C-430C-89F5-3E0CD2D23CE6</title>
    <g id="Des" stroke="none" stroke-width="1" fill="none" fill-rule="evenodd">
        <g id="Login" transform="translate(-635.000000, -128.000000)">
            <g id="Login-Card" transform="translate(475.000000, 96.000000)">
                <g id="Group" transform="translate(32.000000, 32.000000)">
                    <g id="lg_moriarty_vert" transform="translate(128.000000, 0.000000)">
                        <g id="Logo" transform="translate(0.000000, 3.200000)">
                            <g id="Logo/Logomark-V2" transform="translate(28.800000, 0.000000)">
                                <path d="M4.8,0 C7.4509668,0 9.6,2.1490332 9.6,4.8 L9.6,33.6 C9.6,36.2509668 7.4509668,38.4 4.8,38.4 C2.1490332,38.4 0,36.2509668 0,33.6 L0,4.8 C0,2.1490332 2.1490332,0 4.8,0 Z" id="Rectangle-Copy-4" fill="#004F9F"></path>
                                <path d="M33.6,0 C36.2509668,0 38.4,2.1490332 38.4,4.8 L38.4,33.6 C38.4,36.2509668 36.2509668,38.4 33.6,38.4 C30.9490332,38.4 28.8,36.2509668 28.8,33.6 L28.8,4.8 C28.8,2.1490332 30.9490332,0 33.6,0 Z" id="Rectangle-Copy-5" fill="#AFCA0B"></path>
                                <path d="M19.2,12.8 C21.8509668,12.8 24,14.9490332 24,17.6 L24,27.2 C24,29.8509668 21.8509668,32 19.2,32 C16.5490332,32 14.4,29.8509668 14.4,27.2 L14.4,17.6 C14.4,14.9490332 16.5490332,12.8 19.2,12.8 Z" id="Rectangle-Copy-6" fill="#00B1EB"></path>
                            </g>
                            <path d="M2.08930351,57.373913 L2.08930351,50.1391304 L5.1674377,57.373913 L7.43217891,57.373913 L10.5103131,50.1391304 L10.5103131,57.373913 L12.5996166,57.373913 L12.5996166,45.826087 L10.2232332,45.826087 L6.33170607,54.9217391 L2.44017891,45.826087 L0,45.826087 L0,57.373913 L2.08930351,57.373913 Z M19.8510415,57.6 C21.4565623,57.6 22.7750032,57.0202899 23.8063642,55.8608696 C24.8377252,54.7014493 25.3534058,53.2811594 25.3534058,51.6 C25.3534058,49.9072464 24.8377252,48.484058 23.8063642,47.3304348 C22.7750032,46.1768116 21.4565623,45.6 19.8510415,45.6 C18.2455208,45.6 16.9270799,46.1768116 15.8957188,47.3304348 C14.8643578,48.484058 14.3486773,49.9072464 14.3486773,51.6 C14.3486773,53.2811594 14.8643578,54.7014493 15.8957188,55.8608696 C16.9270799,57.0202899 18.2455208,57.6 19.8510415,57.6 Z M19.8510415,55.5652174 C18.8728435,55.5652174 18.0594505,55.1826087 17.4108626,54.4173913 C16.7622748,53.6405797 16.4379808,52.7014493 16.4379808,51.6 C16.4379808,50.4869565 16.7622748,49.5478261 17.4108626,48.7826087 C18.0594505,48.0173913 18.8728435,47.6347826 19.8510415,47.6347826 C20.8292396,47.6347826 21.6426326,48.0173913 22.2912204,48.7826087 C22.9398083,49.5478261 23.2641022,50.4869565 23.2641022,51.6 C23.2641022,52.7014493 22.9398083,53.6376812 22.2912204,54.4086957 C21.6426326,55.1797101 20.8292396,55.5652174 19.8510415,55.5652174 Z M29.19177,57.373913 L29.19177,52.9391304 L30.8664026,52.9391304 L33.9604856,57.373913 L36.5601534,57.373913 L33.3863259,52.8347826 C34.2369329,52.6608696 34.8855208,52.2550725 35.3320895,51.6173913 C35.7786581,50.9797101 36.0019425,50.2318841 36.0019425,49.373913 C36.0019425,48.3536232 35.6909393,47.5072464 35.0689329,46.8347826 C34.4469265,46.1623188 33.5351821,45.826087 32.3336997,45.826087 L32.3336997,45.826087 L27.1024665,45.826087 L27.1024665,57.373913 L29.19177,57.373913 Z M32.1901597,50.9043478 L29.19177,50.9043478 L29.19177,47.8608696 L32.1901597,47.8608696 C32.7324217,47.8608696 33.1550671,47.9971014 33.4580958,48.2695652 C33.7611246,48.542029 33.912639,48.9101449 33.912639,49.373913 C33.912639,49.8376812 33.7584665,50.2086957 33.4501214,50.4869565 C33.1417764,50.7652174 32.7217891,50.9043478 32.1901597,50.9043478 L32.1901597,50.9043478 Z M40.1114377,57.373913 L40.1114377,45.826087 L38.0221342,45.826087 L38.0221342,57.373913 L40.1114377,57.373913 Z M43.3437444,57.373913 L44.3804217,54.8173913 L49.2129329,54.8173913 L50.2496102,57.373913 L52.4665048,57.373913 L47.857278,45.826087 L45.8158211,45.826087 L41.2065942,57.373913 L43.3437444,57.373913 Z M48.3835911,52.7826087 L45.2097636,52.7826087 L46.8046518,48.8521739 L48.3835911,52.7826087 Z M55.6509649,57.373913 L55.6509649,52.9391304 L57.3255974,52.9391304 L60.4196805,57.373913 L63.0193482,57.373913 L59.8455208,52.8347826 C60.6961278,52.6608696 61.3447157,52.2550725 61.7912843,51.6173913 C62.237853,50.9797101 62.4611374,50.2318841 62.4611374,49.373913 C62.4611374,48.3536232 62.1501342,47.5072464 61.5281278,46.8347826 C60.9061214,46.1623188 59.994377,45.826087 58.7928946,45.826087 L58.7928946,45.826087 L53.5616613,45.826087 L53.5616613,57.373913 L55.6509649,57.373913 Z M58.6493546,50.9043478 L55.6509649,50.9043478 L55.6509649,47.8608696 L58.6493546,47.8608696 C59.1916166,47.8608696 59.614262,47.9971014 59.9172907,48.2695652 C60.2203195,48.542029 60.3718339,48.9101449 60.3718339,49.373913 C60.3718339,49.8376812 60.2176613,50.2086957 59.9093163,50.4869565 C59.6009712,50.7652174 59.180984,50.9043478 58.6493546,50.9043478 L58.6493546,50.9043478 Z M69.1703003,57.373913 L69.1703003,47.8608696 L72.6152588,47.8608696 L72.6152588,45.826087 L63.6200895,45.826087 L63.6200895,47.8608696 L67.0809968,47.8608696 L67.0809968,57.373913 L69.1703003,57.373913 Z M79.0851885,57.373913 L79.0851885,53.3043478 L83.2,45.826087 L80.9352588,45.826087 L78.0485112,51.0086957 L75.1458147,45.826087 L72.8491757,45.826087 L76.995885,53.3043478 L76.995885,57.373913 L79.0851885,57.373913 Z" id="MORIARTY" fill="#0E2B63" fill-rule="nonzero"></path>
                            <g id="Logo/Giants/lg_batb_full" transform="translate(76.800000, 39.200000)" fill="#24336B" fill-rule="nonzero">
                                <g id="BAT_logo_(2020)">
                                    <g id="g3702" transform="translate(8.532374, 7.012031) scale(-1, 1) rotate(-180.000000) translate(-8.532374, -7.012031) translate(0.532374, 1.512031)">
                                        <path d="M12.7387557,5.06283879 C13.0346868,3.42803181 11.9531991,1.69164143 9.93361634,0.155151511 C9.91434489,0.140452947 9.93492288,0.111382453 9.95517423,0.124611161 C11.5653203,1.17702836 13.2703537,2.3566698 14.4254976,3.92288347 C14.8390172,4.48371536 15.1878631,5.15674628 15.2491071,5.8616241 C15.3634293,7.17747223 14.4844551,8.31579437 13.3823895,8.93411397 C12.6486045,9.3460004 11.8424699,9.60453182 11.0245764,9.78957041 C9.60012225,10.1139187 8.13369549,10.2168087 6.67559792,10.1975372 C5.93462696,10.1879015 5.19398265,10.1478887 4.45611472,10.0778256 C3.74388763,10.0102122 3.03149721,9.92087758 2.32678272,9.7978996 C1.62745769,9.6757382 0.931562337,9.54083804 0.241546405,9.37327441 C0.166747045,9.35498286 0.0919476851,9.33669131 0.0171483249,9.31790981 C-0.00522615617,9.31219371 0.000489952141,9.27855033 0.0238443375,9.28083677 C6.71267096,9.91385494 12.1704112,8.20277874 12.7387557,5.06283879" id="path3704"></path>
                                    </g>
                                    <g id="g3706" transform="translate(13.124076, 3.733401) scale(-1, 1) rotate(-180.000000) translate(-13.124076, -3.733401) translate(7.124076, 0.233401)">
                                        <path d="M0.16331738,5.71610831 C0.140126312,5.71512841 0.135553426,5.74860847 0.158254541,5.75334467 C0.673194242,5.85737784 1.19091034,5.94932553 1.70960634,6.03261739 C2.53484906,6.16555774 3.36433803,6.27596029 4.19644009,6.35614912 C5.62808024,6.49447894 7.11884129,6.57711754 8.55391111,6.37248086 C8.87629962,6.32626204 9.19640168,6.26240495 9.50980774,6.17388693 C10.2914447,5.95291851 11.0928431,5.53188631 11.3090753,4.6917817 C11.4503448,4.14254535 11.3644399,3.55721586 11.1936099,3.02529115 C10.8614224,1.9911655 10.2137056,1.06858562 9.52760933,0.240076549 C9.48498349,0.188468257 9.44186771,0.137349917 9.39875192,0.0863948942 C9.38503326,0.0703897909 9.35922911,0.0852516725 9.36674171,0.105176393 C9.65124059,0.854476534 9.77552511,1.70503345 9.62935606,2.4976127 C9.4136138,3.66680182 8.48074492,4.52470802 7.43290061,4.98705952 C6.16098485,5.54821804 4.76119159,5.68540464 3.38605925,5.74125919 C2.31241079,5.78519156 1.23647589,5.76428694 0.16331738,5.71610831" id="path3708"></path>
                                    </g>
                                </g>
                            </g>
                        </g>
                    </g>
                </g>
            </g>
        </g>
    </g>
</svg>