<?xml version="1.0" encoding="UTF-8"?>
<svg width="32px" height="32px" viewBox="0 0 32 32" version="1.1" xmlns="http://www.w3.org/2000/svg" xmlns:xlink="http://www.w3.org/1999/xlink">
    <title>9F01A0E2-C4E5-48C6-A33B-F13C059408E8</title>
    <defs>
        <filter id="filter-1">
            <feColorMatrix in="SourceGraphic" type="matrix" values="0 0 0 0 0.489177 0 0 0 0 0.489177 0 0 0 0 0.611429 0 0 0 1.000000 0"></feColorMatrix>
        </filter>
    </defs>
    <g id="Des" stroke="none" stroke-width="1" fill="none" fill-rule="evenodd">
        <g id="Home" transform="translate(-60.000000, -313.000000)">
            <g id="Nav-Items" transform="translate(32.000000, 32.000000)">
                <g id="Stacked-Group-3" transform="translate(0.000000, 105.000000)">
                    <g id="ic_reports" transform="translate(0.000000, 176.000000)" filter="url(#filter-1)">
                        <g transform="translate(28.000000, 0.000000)" id="003-seo-report" fill="#00B1EB" fill-rule="nonzero">
                            <path d="M26,32 L6,32 C2.686,32 0,29.314 0,26 L0,6 C0,2.686 2.686,0 6,0 L26,0 C29.314,0 32,2.686 32,6 L32,26 C32,29.314 29.314,32 26,32 Z" id="Path" opacity="0.0799999982"></path>
                            <path d="M17.5,8 L9.833,8 C8.82,8 8,8.82 8,9.833 L8,20.166 C8,21.18 8.82,22 9.833,22 L14,22 L14,18 C14,17.767 14.033,17.54 14.087,17.327 C14.06,17.334 14.034,17.334 14.007,17.334 L10.667,17.334 C10.3,17.334 10,17.034 10,16.667 C10,16.3 10.3,16 10.666,16 L14.006,16 C14.253,16 14.473,16.14 14.586,16.34 C15.066,15.727 15.819,15.333 16.666,15.333 L19.333,15.333 L19.333,9.833 C19.333,8.82 18.513,8 17.5,8 Z M10.666,10.667 L13.333,10.667 C13.7,10.667 14,10.967 14,11.334 C14,11.701 13.7,12 13.333,12 L10.666,12 C10.3,12 10,11.7 10,11.333 C10,10.966 10.3,10.667 10.666,10.667 Z M16.667,14.667 L10.667,14.667 C10.3,14.667 10,14.367 10,14 C10,13.633 10.3,13.333 10.667,13.333 L16.667,13.333 C17.034,13.333 17.334,13.633 17.334,14 C17.333,14.367 17.033,14.667 16.667,14.667 Z" id="Shape"></path>
                            <path d="M22.667,16.667 L16.667,16.667 C15.931,16.667 15.334,17.264 15.334,18 L15.334,22.667 C15.334,23.403 15.931,24 16.667,24 L22.667,24 C23.403,24 24,23.403 24,22.667 L24,18 C24,17.264 23.403,16.667 22.667,16.667 Z M22,22.667 L17.333,22.667 C16.965,22.667 16.666,22.368 16.666,22 L16.666,19.333 L22.666,19.333 L22.666,22 C22.667,22.368 22.368,22.667 22,22.667 L22,22.667 Z" id="Shape" opacity="0.399999976"></path>
                        </g>
                    </g>
                </g>
            </g>
        </g>
    </g>
</svg>