<?xml version="1.0" encoding="UTF-8"?>
<svg width="32px" height="32px" viewBox="0 0 32 32" version="1.1" xmlns="http://www.w3.org/2000/svg" xmlns:xlink="http://www.w3.org/1999/xlink">
    <title>0391C1FB-D8DA-48AC-B438-3E8543C72571</title>
    <defs>
        <filter id="filter-1">
            <feColorMatrix in="SourceGraphic" type="matrix" values="0 0 0 0 0.489177 0 0 0 0 0.489177 0 0 0 0 0.611429 0 0 0 1.000000 0"></feColorMatrix>
        </filter>
    </defs>
    <g id="Des" stroke="none" stroke-width="1" fill="none" fill-rule="evenodd">
        <g id="Home" transform="translate(-60.000000, -225.000000)">
            <g id="Nav-Items" transform="translate(32.000000, 32.000000)">
                <g id="Stacked-Group-3" transform="translate(0.000000, 105.000000)">
                    <g id="ic_peformance" transform="translate(0.000000, 88.000000)" filter="url(#filter-1)">
                        <g transform="translate(28.000000, 0.000000)" id="002-rocket" fill="#00B1EB" fill-rule="nonzero">
                            <path d="M26,32 L6,32 C2.686,32 0,29.314 0,26 L0,6 C0,2.686 2.686,0 6,0 L26,0 C29.314,0 32,2.686 32,6 L32,26 C32,29.314 29.314,32 26,32 Z" id="Path" opacity="0.0799999982"></path>
                            <g id="Group" transform="translate(9.000000, 15.625000)" opacity="0.399999976">
                                <path d="M9.167,8.375 L6.167,8.375 C5.891,8.375 5.667,8.151 5.667,7.875 L5.667,1.542 C5.667,1.266 5.891,1.042 6.167,1.042 L9.167,1.042 C9.443,1.042 9.667,1.266 9.667,1.542 L9.667,7.875 C9.667,8.151 9.443,8.375 9.167,8.375 Z" id="Path"></path>
                                <path d="M4,2.368 C3.632,2.368 3.333,2.069 3.333,1.701 L3.333,0.701 C3.333,0.333 3.631,0.034 4,0.034 C4.368,0.034 4.667,0.333 4.667,0.701 L4.667,1.701 C4.667,2.069 4.368,2.368 4,2.368 Z" id="Path"></path>
                                <path d="M0.667,2.368 C0.298,2.368 0,2.069 0,1.701 L0,0.701 C0,0.333 0.298,0.034 0.667,0.034 C1.035,0.034 1.334,0.333 1.334,0.701 L1.334,1.701 C1.333,2.069 1.035,2.368 0.667,2.368 Z" id="Path"></path>
                            </g>
                            <path d="M12.833,24 L9.833,24 C9.557,24 9.333,23.776 9.333,23.5 L9.333,20.5 C9.333,20.224 9.557,20 9.833,20 L12.833,20 C13.109,20 13.333,20.224 13.333,20.5 L13.333,23.5 C13.333,23.776 13.109,24 12.833,24 Z" id="Path"></path>
                            <path d="M23.5,24 L20.5,24 C20.224,24 20,23.776 20,23.5 L20,13.833 C20,13.557 20.224,13.333 20.5,13.333 L23.5,13.333 C23.776,13.333 24,13.557 24,13.833 L24,23.5 C24,23.776 23.776,24 23.5,24 Z" id="Path"></path>
                            <path d="M14.333,16.66 L8.333,16.66 C8.149,16.66 8,16.51 8,16.326 L8,15.545 C8,15.1 8.173,14.681 8.488,14.366 L9.333,13.521 L9.333,11.626 C9.333,10.821 9.603,10.027 10.093,9.39 L11.068,8.122 C11.194,7.958 11.47,7.958 11.597,8.122 L12.572,9.39 C13.062,10.027 13.332,10.821 13.332,11.626 L13.332,13.521 L14.177,14.366 C14.492,14.681 14.6650199,15.099 14.6650199,15.545 L14.6650199,16.326 C14.667,16.51 14.518,16.66 14.333,16.66 L14.333,16.66 Z" id="Path"></path>
                        </g>
                    </g>
                </g>
            </g>
        </g>
    </g>
</svg>