<?xml version="1.0" encoding="UTF-8"?>
<svg width="24px" height="24px" viewBox="0 0 24 24" version="1.1" xmlns="http://www.w3.org/2000/svg" xmlns:xlink="http://www.w3.org/1999/xlink">
    <title>65EFA2E2-079C-4F95-873F-1D26F89F7200</title>
    <defs>
        <filter id="filter-1">
            <feColorMatrix in="SourceGraphic" type="matrix" values="0 0 0 0 0.489177 0 0 0 0 0.489177 0 0 0 0 0.611429 0 0 0 1.000000 0"></feColorMatrix>
        </filter>
    </defs>
    <g id="Des" stroke="none" stroke-width="1" fill="none" fill-rule="evenodd">
        <g id="Home" transform="translate(-108.000000, -700.000000)">
            <g id="ic_more_vertical" transform="translate(52.000000, 688.000000)" filter="url(#filter-1)">
                <g transform="translate(56.000000, 12.000000)" id="Group" fill="#252525">
                    <path d="M10.59375,16.59375 C11.000002,16.187498 11.4687473,15.984375 12,15.984375 C12.5312527,15.984375 12.999998,16.187498 13.40625,16.59375 C13.812502,17.000002 14.015625,17.4687473 14.015625,18 C14.015625,18.5312527 13.812502,18.999998 13.40625,19.40625 C12.999998,19.812502 12.5312527,20.015625 12,20.015625 C11.4687473,20.015625 11.000002,19.812502 10.59375,19.40625 C10.187498,18.999998 9.984375,18.5312527 9.984375,18 C9.984375,17.4687473 10.187498,17.000002 10.59375,16.59375 Z M10.59375,10.59375 C11.000002,10.187498 11.4687473,9.984375 12,9.984375 C12.5312527,9.984375 12.999998,10.187498 13.40625,10.59375 C13.812502,11.000002 14.015625,11.4687473 14.015625,12 C14.015625,12.5312527 13.812502,12.999998 13.40625,13.40625 C12.999998,13.812502 12.5312527,14.015625 12,14.015625 C11.4687473,14.015625 11.000002,13.812502 10.59375,13.40625 C10.187498,12.999998 9.984375,12.5312527 9.984375,12 C9.984375,11.4687473 10.187498,11.000002 10.59375,10.59375 Z M13.40625,7.40625 C12.999998,7.81250203 12.5312527,8.015625 12,8.015625 C11.4687473,8.015625 11.000002,7.81250203 10.59375,7.40625 C10.187498,6.99999797 9.984375,6.53125266 9.984375,6 C9.984375,5.46874734 10.187498,5.00000203 10.59375,4.59375 C11.000002,4.18749797 11.4687473,3.984375 12,3.984375 C12.5312527,3.984375 12.999998,4.18749797 13.40625,4.59375 C13.812502,5.00000203 14.015625,5.46874734 14.015625,6 C14.015625,6.53125266 13.812502,6.99999797 13.40625,7.40625 Z" id="m"></path>
                </g>
            </g>
        </g>
    </g>
</svg>